<svg version="1.1" xmlns="http://www.w3.org/2000/svg" viewBox="0 0 540.9921875 215.50390625" width="540.9921875" height="215.50390625"><!-- svg-source:excalidraw --><metadata><!-- payload-type:application/vnd.excalidraw+json --><!-- payload-version:2 --><!-- payload-start -->eyJ2ZXJzaW9uIjoiMSIsImVuY29kaW5nIjoiYnN0cmluZyIsImNvbXByZXNzZWQiOnRydWUsImVuY29kZWQiOiJ4nO1V30/bMFx1MDAxMH7vX1GFV1x1MDAxNmLnN9I0QUFcdTAwMWHaQLBKY2jiwU1M68WxM8ehdKj/+2w3xGlaJjTtca1cdTAwMTQ5d/bdd3ff5zyPxmNHrirsXHUwMDFjj1x1MDAxZPyUIUpygZbOobY/YlFcdTAwMTPOlFx1MDAwYpr3mjdcIjM7XHUwMDE3Ulb18dFRiUSBZUVRht1HUjeI1rLJXHR3M15cdTAwMWVcdTAwMTGJy/qDfl6hXHUwMDEyv694mUvh2iTvcE4kXHUwMDE3m1xcmOJcdTAwMTIzWavo39X7ePxsnspDcp3x5OPXXHUwMDFm/tn1nGVfvl1Pr+5mabGk5qjZ9FKCwJlEbE6xdT0pe+qnblx1MDAxMMaeXHUwMDBmYNg5VspcdTAwMDGiwI1cdTAwMTI/TP3YOpYkl1x1MDAwYuVcZqHnpilcdTAwMDRJz7fAZL6Q+mRcdTAwMWG6oeenXtRcdTAwMGK5SX089jpLLVx1MDAwNS/whFNVqMJ3XHUwMDAwsP5bdDOUXHUwMDE1c8FcdTAwMWKWd3ukQKyukFDtsPtcdTAwMWVcYqVTuTLR1SBUXHUwMDA3nUGO21x1MDAxNjVcdTAwMWPYXzulks5cdTAwMTdcZte65aCz8lxuZUSa1ni2XG6NsLrIzXTuLSah5nqhx8NcdTAwMWFKOzNhOdZNd5C3lY3lbbaX0dq5+a1lbbFjrFx1MDAwM4MgjbxcdTAwMTCEQdB5LCtcdTAwMDFcdTAwMDRD61x1MDAxNWeGoSCBYZz6XHUwMDFltOdIfaZIJk3YXHUwMDA3RVRsZ6CxnVx1MDAwZlx02Cdhj4jF3c1n/+bT7UkzmfxcXJHboCwuZ12dW2REQvCl03nW7co2sKlytFx1MDAwMVx1MDAwNOI4XHUwMDAyXlx1MDAxYUdpkCadn1x1MDAxMlZcZrtLeVbYXHUwMDFhRr2uXHJcdTAwMTTzZ6BcdTAwMDOQW2pRk4duXHUwMDE0XHKpr0lcdTAwMDG9yFxyIVxikmCfYFx1MDAwMPDd2E9g0peZVUziXHUwMDA2ycD5XzBbglx1MDAwMW9cdTAwMTVcZnxVMDBOgJdEMdwnXHUwMDE4339VMFx1MDAxZfDTKEz+TjD/ktKdueJkqEe7XHUwMDFhW8qYl259f7h39z5qXHUwMDFhuyWlXHKxI1SKajnhZUmkqu1a41x1MDAxYdZQSyTkqZokYfPtibVftos3fMY0RXjW1H1BaDKhylxchTszxyy3KXfhnGhpLzDaIZw61/dccu9cdTAwMDBMZ3w5vGNGbT9cdTAwMWNUVVOpZtxVqchO8in5ZXjZ4t7YJNbAw57pkuf4nKFcdTAwMTlcdTAwMWTO23kkeHm6q+2DXHUwMDA389O3qKlb61x1MDAxYVx1MDAxYk2sR+vf9lwiL2kifQ==<!-- payload-end --></metadata><defs><style class="style-fonts">
      </style></defs><rect x="0" y="0" width="540.9921875" height="215.50390625" fill="#ffffff"></rect><g stroke-linecap="round" transform="translate(10 10) rotate(0 260.49609375 97.751953125)"><path d="M32 0 C136.51 1.2, 242.47 2.46, 488.99 0 M32 0 C202.65 1.6, 373.17 1.61, 488.99 0 M488.99 0 C509.59 0.91, 521.7 8.68, 520.99 32 M488.99 0 C509.21 1.73, 520 12.26, 520.99 32 M520.99 32 C519.57 79.57, 521.67 131.6, 520.99 163.5 M520.99 32 C522.08 80.34, 522.04 126.83, 520.99 163.5 M520.99 163.5 C521.48 183.07, 509.78 196.94, 488.99 195.5 M520.99 163.5 C522.94 183.98, 508.03 195.01, 488.99 195.5 M488.99 195.5 C370.45 198.01, 250.83 198.19, 32 195.5 M488.99 195.5 C382.87 195.77, 276.4 195.66, 32 195.5 M32 195.5 C9.43 197.38, -1.47 183.95, 0 163.5 M32 195.5 C10.59 196.07, 1.29 182.84, 0 163.5 M0 163.5 C0.34 117.16, 0.1 72.14, 0 32 M0 163.5 C1.22 119.82, -0.24 75.98, 0 32 M0 32 C-0.87 9.56, 11.62 1.86, 32 0 M0 32 C-0.87 9.83, 11.81 -1.95, 32 0" stroke="#1e1e1e" stroke-width="2" fill="none"></path></g><g stroke-linecap="round"><g transform="translate(73.212890625 51.837890625) rotate(0 56.869140625 9.244140625)"><path d="M0.3 0.43 C19.55 3.6, 96.02 14.72, 114.93 17.82 M-1.01 -0.39 C18.25 3.03, 95.61 16.11, 114.61 19.01" stroke="#1e1e1e" stroke-width="2" fill="none"></path></g><g transform="translate(73.212890625 51.837890625) rotate(0 56.869140625 9.244140625)"><path d="M90.05 23.69 C96.93 24.45, 101.22 21.32, 114.61 19.01 M90.05 23.69 C99.61 22.23, 107.72 20.85, 114.61 19.01" stroke="#1e1e1e" stroke-width="2" fill="none"></path></g><g transform="translate(73.212890625 51.837890625) rotate(0 56.869140625 9.244140625)"><path d="M92.79 6.81 C98.82 11.78, 102.43 12.86, 114.61 19.01 M92.79 6.81 C101.49 11.28, 108.64 15.8, 114.61 19.01" stroke="#1e1e1e" stroke-width="2" fill="none"></path></g></g><mask></mask></svg>