<?xml version="1.0" encoding="UTF-8"?>
<!-- Created with Inkscape (http://www.inkscape.org/) -->
<svg width="40mm" height="40mm" version="1.1" viewBox="0 0 40 40" xmlns="http://www.w3.org/2000/svg">
 <g transform="translate(-101.9 -107.24)">
  <path d="m109.29 114.51 4.2333-4.2333h16.767v29.7l-16.767-1e-5v-22.292l3.175-3.175h17.825v29.7h-25.233z" style="fill:none;stroke-linecap:round;stroke-linejoin:round;stroke-width:2;stroke:#000"/>
  <path d="m121.93 135.37q-1.3208 0-2.5061-0.44026-1.1684-0.4572-1.8119-1.1684l0.38946-0.64347q0.6096 0.62654 1.6595 1.0668 1.0499 0.42333 2.2521 0.42333 1.778 0 2.5908-0.67733 0.82973-0.67733 0.82973-1.6425 0-0.762-0.4064-1.2192-0.4064-0.45719-1.0668-0.72813-0.6604-0.27093-1.4563-0.4572-0.77893-0.18626-1.5748-0.38946-0.77894-0.22014-1.4393-0.5588-0.66039-0.33867-1.0668-0.9144-0.38947-0.59266-0.38947-1.524 0-0.84666 0.44027-1.5579 0.44026-0.7112 1.3716-1.1515 0.93134-0.44027 2.3876-0.44027 0.98213 0 1.9304 0.28787 0.96519 0.28786 1.6425 0.77893l-0.32174 0.69426q-0.74506-0.508-1.6087-0.74506-0.84667-0.254-1.6425-0.254-1.7272 0-2.54 0.69426-0.79586 0.69427-0.79586 1.6764 0 0.762 0.38946 1.2192 0.4064 0.4572 1.0668 0.72813t1.4393 0.4572q0.79587 0.18627 1.5748 0.4064 0.79587 0.2032 1.4563 0.54186 0.6604 0.33867 1.0668 0.9144t0.4064 1.4901q0 0.84667-0.4572 1.5579-0.4572 0.71119-1.4055 1.1515-0.93133 0.42333-2.4045 0.42333z" style="fill:#00f;stroke-width:2.5;stroke:#000" aria-label="S"/>
 </g>
</svg>
